            <svg xmlns="http://www.w3.org/2000/svg" width="1100px" height="700px" viewBox="0 0 1185.708 804.739">
                <g id="_455e5a63243374a1f3156eaa64a23fcc" data-name="455e5a63243374a1f3156eaa64a23fcc" transform="translate(-0.004 -45.604)">
                  <path id="Path_274" data-name="Path 274" d="M569.922,528.905S348.606,312.624,596.269,257.494,930.877,427.126,1099.5,433.487s366.225-84.816,418.919-84.816,147.544,4.241,142.275,78.455-73.772,142.067-76.407,178.114,60.6,133.585,71.137,156.91,23.713,89.057-34.251,93.3c-29.667,2.12-198.921,28.625-428.141-25.445-173.456-40.913-444.95,29.686-508.249,29.686-20.5.041-40.506-5.058-57.239-14.588-46.5-26.622-120.5-93.489-54.987-231.379C606.808,541.628,569.922,528.905,569.922,528.905Z" transform="translate(-478.92 -13.456)" fill="#c8e2c3"/>
                  <ellipse id="Ellipse_97" data-name="Ellipse 97" cx="25.711" cy="25.711" rx="25.711" ry="25.711" transform="translate(272.321 135.847)" fill="#fff"/>
                  <ellipse id="Ellipse_98" data-name="Ellipse 98" cx="17.141" cy="17.141" rx="17.141" ry="17.141" transform="translate(249.635 148.954)" fill="#fff"/>
                  <ellipse id="Ellipse_99" data-name="Ellipse 99" cx="16.636" cy="16.636" rx="16.636" ry="16.636" transform="translate(308.618 149.962)" fill="#fff"/>
                  <circle id="Ellipse_100" data-name="Ellipse 100" cx="66.901" cy="66.901" r="66.901" transform="translate(990.203 117.281)" fill="#fff"/>
                  <circle id="Ellipse_101" data-name="Ellipse 101" cx="44.601" cy="44.601" r="44.601" transform="translate(929.86 146.14)" fill="#fff"/>
                  <circle id="Ellipse_102" data-name="Ellipse 102" cx="43.289" cy="43.289" r="43.289" transform="translate(1087.275 152.699)" fill="#fff"/>
                  <circle id="Ellipse_103" data-name="Ellipse 103" cx="44.601" cy="44.601" r="44.601" transform="translate(93.112 174.058)" fill="#fff"/>
                  <circle id="Ellipse_104" data-name="Ellipse 104" cx="31.483" cy="31.483" r="31.483" transform="translate(158.702 196.778)" fill="#fff"/>
                  <circle id="Ellipse_105" data-name="Ellipse 105" cx="31.483" cy="31.483" r="31.483" transform="translate(60.318 196.778)" fill="#fff"/>
                  <path id="Path_275" data-name="Path 275" d="M712,647.274s30.171-38.042,61.654,3.935c0,0,30.171-44.6,48.536-6.559" transform="translate(-468.032 -540.812)" fill="none" stroke="#464232" stroke-linecap="round" stroke-linejoin="round" stroke-width="5"/>
                  <path id="Path_276" data-name="Path 276" d="M656,619.921s21.671-27.351,44.273,2.82c0,0,21.671-32.034,34.854-4.709" transform="translate(-583.492 -531.697)" fill="none" stroke="#464232" stroke-linecap="round" stroke-linejoin="round" stroke-width="5"/>
                  <path id="Path_277" data-name="Path 277" d="M1189,458.921s21.671-27.325,44.273,2.82c0,0,21.671-32.034,34.854-4.709" transform="translate(-121.402 -397.89)" fill="none" stroke="#464232" stroke-linecap="round" stroke-linejoin="round" stroke-width="5"/>
                </g>
            </svg>