<svg xmlns="http://www.w3.org/2000/svg" width="1235.181" height="594.659" viewBox="0 0 1235.181 594.659">
  <g id="Layer_1" data-name="Layer 1" transform="translate(0.002 -0.005)" opacity="0.529">
    <path id="Path_271" data-name="Path 271" d="M954.973,675.658c-18.817-84.884-60.858-92.283-93.186-135.129-29.431-38.973-53.166-102.731,29.894-148.313,129.019-70.86,287.25,1.648,287.25,1.648s250.736,97.227,294.553,102.171,150.928,54.381,284.816-4.944,248.3-54.381,284.816-9.888-46.252,173.031-65.727,199.4,9.737,108.762,41.384,141.721,131.454,135.129-82.767,131.833-856.883,1.648-856.883,1.648-230.7-2.917-189.878-154.9C923.327,674.01,962.276,708.617,954.973,675.658Z" transform="translate(-834.52 -361.14)" fill="#b7d8ff"/>
    <circle id="Ellipse_75" data-name="Ellipse 75" cx="32.958" cy="32.958" r="32.958" transform="translate(104.611 237.066)" fill="#519a73"/>
    <circle id="Ellipse_76" data-name="Ellipse 76" cx="22.247" cy="22.247" r="22.247" transform="translate(60.117 288.152)" fill="#519a73"/>
    <circle id="Ellipse_77" data-name="Ellipse 77" cx="12.359" cy="12.359" r="12.359" transform="translate(73.301 246.954)" fill="#519a73"/>
    <circle id="Ellipse_78" data-name="Ellipse 78" cx="32.958" cy="32.958" r="32.958" transform="translate(783.553 459.535)" fill="#519a73"/>
    <circle id="Ellipse_79" data-name="Ellipse 79" cx="12.359" cy="12.359" r="12.359" transform="translate(12.328 90.402)" fill="#519a73"/>
    <circle id="Ellipse_80" data-name="Ellipse 80" cx="58.501" cy="58.501" r="58.501" transform="translate(172.176 431.521)" fill="#fff"/>
    <circle id="Ellipse_81" data-name="Ellipse 81" cx="39.55" cy="39.55" r="39.55" transform="translate(577.563 497.437)" fill="#fff"/>
    <circle id="Ellipse_82" data-name="Ellipse 82" cx="21.423" cy="21.423" r="21.423" transform="translate(747.299 311.223)" fill="#9dc4af"/>
    <circle id="Ellipse_83" data-name="Ellipse 83" cx="42.846" cy="42.846" r="42.846" transform="translate(566.028 96.993)" fill="#f9f9f9"/>
    <circle id="Ellipse_84" data-name="Ellipse 84" cx="20.599" cy="20.599" r="20.599" transform="translate(195.246 4.71)" fill="#fff"/>
    <circle id="Ellipse_85" data-name="Ellipse 85" cx="20.599" cy="20.599" r="20.599" transform="translate(129.33 415.041)" fill="#fff"/>
    <circle id="Ellipse_86" data-name="Ellipse 86" cx="20.599" cy="20.599" r="20.599" transform="translate(793.44 176.093)" fill="#bac5f4"/>
    <circle id="Ellipse_87" data-name="Ellipse 87" cx="22.247" cy="22.247" r="22.247" transform="translate(758.834 523.804)" fill="#519a73"/>
    <circle id="Ellipse_88" data-name="Ellipse 88" cx="12.359" cy="12.359" r="12.359" transform="translate(818.159 545.227)" fill="#519a73"/>
  </g>
</svg>
